HIERARCHY
ROOT Hips
{
	OFFSET 0.000000 88.474243 0.000000
	CHANNELS 6 Xposition Yposition Zposition Zrotation Yrotation Xrotation 
	JOINT Hips_Spine
	{
		OFFSET 0.000000 0.000000 0.000000
		CHANNELS 3 Zrotation Yrotation Xrotation
		JOINT Spine
		{
			OFFSET 0.005100 8.711998 -0.691000
			CHANNELS 3 Zrotation Yrotation Xrotation
			JOINT Spine1
			{
				OFFSET -0.009200 8.660301 -1.275000
				CHANNELS 3 Zrotation Yrotation Xrotation
				JOINT Spine2
				{
					OFFSET 0.006300 9.852501 -1.857000
					CHANNELS 3 Zrotation Yrotation Xrotation
					JOINT Spine2_Neck
					{
						OFFSET 0.000000 0.000000 0.000000
						CHANNELS 3 Zrotation Yrotation Xrotation
						JOINT Neck
						{
							OFFSET 0.016300 11.420799 -0.263300
							CHANNELS 3 Zrotation Yrotation Xrotation
							End Site #name: Head
							{
								OFFSET -0.019200 9.262405 2.362500
							}
						}
					}
					JOINT Spine2_LeftShoulder
					{
						OFFSET 0.000000 0.000000 0.000000
						CHANNELS 3 Zrotation Yrotation Xrotation
						JOINT LeftShoulder
						{
							OFFSET 5.616900 6.732201 -0.345700
							CHANNELS 3 Zrotation Yrotation Xrotation
							JOINT LeftArm
							{
								OFFSET 10.664888 -0.183372 -2.440700
								CHANNELS 3 Zrotation Yrotation Xrotation
								JOINT LeftForeArm
								{
									OFFSET 27.459126 0.000000 0.000000
									CHANNELS 3 Zrotation Yrotation Xrotation
									End Site #name: LeftHand
									{
										OFFSET 21.306858 0.000000 0.000000
									}
								}
							}
						}
					}
					JOINT Spine2_RightShoulder
					{
						OFFSET 0.000000 0.000000 0.000000
						CHANNELS 3 Zrotation Yrotation Xrotation
						JOINT RightShoulder
						{
							OFFSET -5.580300 6.737503 -0.344400
							CHANNELS 3 Zrotation Yrotation Xrotation
							JOINT RightArm
							{
								OFFSET -10.679335 -0.188484 -2.383900
								CHANNELS 3 Zrotation Yrotation Xrotation
								JOINT RightForeArm
								{
									OFFSET -27.503529 0.000000 0.000000
									CHANNELS 3 Zrotation Yrotation Xrotation
									End Site #name: RightHand
									{
										OFFSET -21.306808 0.000000 0.000000
									}
								}
							}
						}
					}
				}
			}
		}
	}
	JOINT Hips_LeftUpLeg
	{
		OFFSET 0.000000 0.000000 0.000000
		CHANNELS 3 Zrotation Yrotation Xrotation
		JOINT LeftUpLeg
		{
			OFFSET 6.857700 -6.739601 0.312100
			CHANNELS 3 Zrotation Yrotation Xrotation
			JOINT LeftLeg
			{
				OFFSET -0.367590 -34.731552 -4.572400
				CHANNELS 3 Zrotation Yrotation Xrotation
				End Site #name: LeftFoot
				{
					OFFSET 0.367590 -34.656704 -6.067400
				}
			}
		}
	}
	JOINT Hips_RightUpLeg
	{
		OFFSET 0.000000 0.000000 0.000000
		CHANNELS 3 Zrotation Yrotation Xrotation
		JOINT RightUpLeg
		{
			OFFSET -6.876100 -6.733299 0.301000
			CHANNELS 3 Zrotation Yrotation Xrotation
			JOINT RightLeg
			{
				OFFSET 0.347353 -34.795158 -4.515900
				CHANNELS 3 Zrotation Yrotation Xrotation
				End Site #name: RightFoot
				{
					OFFSET -0.347353 -34.589367 -6.070300
				}
			}
		}
	}
}
MOTION
Frames: 10
Frame Time: 0.041667
-0.070424 0.076878 0.044149 -4.160883 -0.103927 -1.806160 -0.000000 0.000000 0.000000 -0.760439 0.873995 5.672515 -1.729820 1.305023 9.820079 0.000000 0.000000 0.000000 -1.955691 1.380366 9.139313 -1.335491 -3.613684 4.477504 -2.008986 1.208156 10.151798 -0.833976 -0.705222 0.327308 -69.083033 -24.402929 21.747891 171.495357 -85.363301 -171.789349 -1.861584 1.690402 10.644886 -4.804555 -0.592527 1.380038 77.104400 -5.299336 5.848823 175.368639 84.208557 177.208684 0.000000 -0.000000 0.000000 7.402034 1.216834 -19.740772 -1.157065 0.617666 34.497786 -0.000000 0.000000 -0.000000 -3.930350 -2.813795 -16.026342 -0.290416 -2.090316 27.417274 
0.051651 0.095849 0.146106 -5.267004 -4.019975 -1.645396 -0.000000 0.000000 0.000000 -0.749228 0.457017 5.148914 -2.073476 1.414336 10.094565 0.000000 0.000000 0.000000 -1.817964 1.374965 10.091338 -2.070458 -4.053574 5.592895 -2.022663 1.497577 10.687117 0.871241 0.951440 -0.157234 -69.187160 -22.799664 31.240207 178.831412 -83.385363 -178.894249 -1.919671 1.207182 10.181297 -5.618626 -2.271755 0.704912 82.208064 -7.394197 7.094774 -167.216735 86.897713 -167.441152 0.000000 -0.000000 0.000000 7.387261 0.204312 -23.089751 -0.694108 0.931992 32.926369 -0.000000 0.000000 -0.000000 -2.919724 -3.771172 -16.534381 0.941826 -0.464776 26.845292 
0.179910 0.077473 0.145271 -4.667893 -5.839333 -2.708376 0.000000 -0.000000 -0.000000 -0.721962 0.446076 5.006854 -2.089762 1.357373 10.014807 0.000000 0.000000 0.000000 -2.103772 1.535835 10.851632 -1.881840 -3.615876 4.861311 -1.808294 1.549575 10.378031 1.237304 0.590832 -0.160547 -70.640665 -17.521472 31.637842 -177.281544 -82.163435 177.157829 -1.970604 1.352806 10.163096 -4.109044 -2.028897 0.786052 81.015511 -7.589785 8.996231 -164.768716 87.202627 -165.125724 0.000000 -0.000000 0.000000 7.468854 0.859302 -22.949972 -0.792779 0.564071 33.848321 -0.000000 0.000000 -0.000000 -2.608241 -3.599436 -16.524415 0.621236 -0.919866 25.818507 
0.273294 0.041658 0.128032 -4.216484 -6.315883 -3.142880 0.000000 -0.000000 -0.000000 -0.611007 0.512176 4.841322 -2.011957 1.488905 10.042032 0.000000 0.000000 0.000000 -1.932817 1.592730 10.347145 -1.719848 -3.849830 5.260921 -1.861994 1.587655 10.178193 1.943263 0.235637 0.047274 -71.274545 -17.437669 31.968561 -176.660251 -83.101031 176.485117 -1.980097 1.496757 10.070072 -3.887825 -1.400064 1.113138 79.801176 -7.259108 8.912076 -168.881035 85.871369 -169.447583 0.000000 0.000000 0.000000 7.317522 1.176522 -23.185741 -1.116619 0.458196 34.393419 -0.000000 0.000000 0.000000 -2.284975 -3.343079 -16.832163 0.431045 -0.777817 26.348729 
0.343621 0.040641 0.181765 -4.364197 -5.878545 -2.950691 -0.000000 -0.000000 0.000000 -0.547332 0.662593 4.928801 -1.949891 1.520500 9.930391 0.000000 0.000000 0.000000 -1.853870 1.587634 9.876054 -1.521119 -3.973482 5.196207 -1.917864 1.574424 9.920660 2.070092 0.305837 0.188226 -71.435090 -18.333282 31.444155 -175.031475 -84.370130 175.207909 -1.992417 1.552753 10.000748 -4.198279 -1.982113 1.253440 79.367901 -8.343199 7.808791 -167.510242 85.694539 -168.108148 0.000000 0.000000 0.000000 6.956983 1.172988 -22.973265 -1.122834 0.565111 34.523599 -0.000000 0.000000 0.000000 -2.352448 -3.357722 -17.064607 0.508224 -0.661148 26.634158 
0.427734 0.063525 0.268215 -4.547017 -5.361753 -2.815130 -0.000000 -0.000000 0.000000 -0.549160 0.755969 4.888435 -1.874142 1.487225 9.784731 0.000000 0.000000 0.000000 -1.830551 1.523000 9.685871 -1.333931 -3.856770 5.021505 -1.924698 1.518448 9.686732 1.885938 0.485291 0.185086 -71.651919 -19.030078 30.746644 -175.134513 -84.753198 175.286991 -1.972728 1.541458 9.927912 -4.505803 -2.292088 1.234013 79.524185 -8.986529 7.343399 -168.169628 85.476683 -168.706946 0.000000 0.000000 0.000000 6.739702 1.248090 -22.655508 -1.203951 0.639935 34.327840 -0.000000 -0.000000 0.000000 -2.752857 -3.448536 -16.756660 0.476752 -0.742139 26.332723 
0.534276 0.092921 0.347605 -4.708617 -5.176329 -2.613755 -0.000000 -0.000000 0.000000 -0.572017 0.759847 4.815523 -1.864604 1.484123 9.774170 0.000000 0.000000 0.000000 -1.865917 1.466751 9.693526 -1.108178 -3.700691 5.010248 -1.911360 1.475599 9.559201 1.678935 0.538913 0.159154 -71.511117 -19.423908 29.732789 -176.786124 -83.813003 176.894596 -1.906307 1.498588 9.831475 -4.625635 -2.054286 1.169524 79.898321 -8.821910 7.415516 -169.946482 85.363024 -170.328856 0.000000 0.000000 0.000000 6.604581 1.231158 -22.188461 -1.195535 0.643616 33.944349 -0.000000 -0.000000 0.000000 -3.301563 -3.441435 -16.359538 0.448385 -0.866319 25.778376 
0.652098 0.124370 0.416157 -4.804430 -5.450641 -2.387881 -0.000000 -0.000000 0.000000 -0.588622 0.761262 4.833921 -1.856787 1.480070 9.789799 0.000000 0.000000 0.000000 -1.870924 1.441286 9.727348 -0.822844 -3.542920 4.958348 -1.876975 1.467186 9.539655 1.619823 0.487321 0.175203 -71.431090 -19.752913 28.895697 -177.947751 -83.292385 177.992752 -1.827294 1.471278 9.749490 -4.616690 -1.806382 1.139762 79.960422 -8.666689 7.346806 -171.304178 85.367636 -171.552217 0.000000 0.000000 0.000000 6.526184 1.243256 -22.007123 -1.154155 0.600120 33.818908 -0.000000 -0.000000 -0.000000 -3.711079 -3.358263 -16.177286 0.437390 -0.929537 25.394270 
0.774288 0.155050 0.476651 -4.849385 -5.761398 -2.197294 -0.000000 0.000000 0.000000 -0.577934 0.750756 4.888280 -1.818291 1.486058 9.820196 0.000000 0.000000 0.000000 -1.834303 1.449146 9.748616 -0.522296 -3.273961 4.856507 -1.829414 1.479435 9.596294 1.682288 0.479825 0.228626 -71.691093 -19.572925 28.696074 -178.426765 -83.342307 178.425695 -1.735038 1.451834 9.718241 -4.426879 -1.617956 1.143318 79.744870 -8.368678 7.399659 -172.331653 85.544723 -172.487308 0.000000 0.000000 0.000000 6.519314 1.275183 -21.993405 -1.121936 0.548009 33.866130 -0.000000 -0.000000 -0.000000 -3.841492 -3.158012 -16.224347 0.429956 -0.925192 25.173561 
0.898164 0.179994 0.526600 -4.805534 -5.974018 -2.103938 -0.000000 0.000000 0.000000 -0.551949 0.724130 4.943874 -1.759818 1.497257 9.818362 0.000000 0.000000 0.000000 -1.776792 1.463722 9.725683 -0.125897 -2.630704 4.546311 -1.772415 1.492704 9.638031 1.847832 0.517659 0.272263 -72.071865 -19.168186 28.945301 -178.663164 -83.665874 178.633509 -1.660755 1.442473 9.694593 -4.333086 -1.563363 1.169272 79.406371 -8.187366 7.397407 -173.112385 85.566829 -173.232997 0.000000 0.000000 0.000000 6.514375 1.313752 -22.005959 -1.108862 0.491581 33.934942 -0.000000 -0.000000 -0.000000 -3.797649 -2.923307 -16.391606 0.434557 -0.885150 25.118876 
